<svg width="54" height="54" viewBox="0 0 54 54" fill="none" xmlns="http://www.w3.org/2000/svg">
<g clip-path="url(#clip0_783_96)">
<circle cx="27" cy="27" r="26.5" fill="#FFE2E2" stroke="#FF0000"/>
<path d="M18.0701 41.0901C18.5117 42.0544 19.2499 42.7554 20.0941 43.3625C20.6364 43.7525 21.2076 44.0728 21.893 44.1306C22.0129 44.1407 22.1571 44.1464 22.1884 44.2969C22.2262 44.4783 22.0835 44.5662 21.9513 44.6246C20.692 45.1809 19.4243 45.3317 18.1878 44.5862C17.0153 43.8793 16.1675 42.8496 15.5157 41.6691C14.4583 39.7544 13.88 37.7 13.8681 35.5039C13.8631 34.5834 14.0983 33.7165 14.5393 32.9059C14.6426 32.7161 14.7806 32.5364 14.7675 32.2679C14.5782 32.318 14.533 32.4747 14.4664 32.6037C13.9991 33.5089 13.7803 34.4879 13.6945 35.4886C13.435 38.5164 14.4747 41.1292 16.3381 43.4581C16.7538 43.9775 17.2956 44.3656 17.8657 44.7074C18.0859 44.8395 18.3157 44.9557 18.5387 45.0833C18.6432 45.1431 18.7819 45.1992 18.7546 45.3466C18.7211 45.527 18.5503 45.4989 18.4246 45.4978C17.2495 45.4881 16.1904 45.0744 15.319 44.3392C12.7344 42.1587 11.0845 39.4622 10.9893 35.9854C10.9333 33.9392 11.4082 32.0152 12.3913 30.2172C12.5197 29.9823 12.6414 29.7437 12.7343 29.4903C12.2406 30.3016 11.7345 31.104 11.4251 32.0142C10.7696 33.9429 10.6077 35.9001 11.0469 37.8966C11.3777 39.3998 12.0711 40.7388 12.9267 42.0035C13.3604 42.6444 13.8816 43.2095 14.4251 43.7576C14.6484 43.9828 14.8581 44.2247 15.048 44.4784C15.2217 44.7104 15.1539 44.8296 14.8611 44.8504C14.7396 44.859 14.614 44.8614 14.4946 44.8412C11.7898 44.3837 9.46944 42.3005 8.82172 39.937C8.45889 38.6131 8.5156 37.2817 8.75117 35.9431C9.03531 34.3287 9.62417 32.8252 10.304 31.3414C11.3111 29.1431 12.2898 26.9339 13.0677 24.6363C13.705 22.7537 14.2661 20.8345 15.1847 19.0579C16.2068 17.0813 17.2397 15.1069 18.6976 13.4004C19.6742 12.2571 20.638 11.0979 21.8625 10.1976C25.1369 7.79043 30.0635 8.06356 33.1191 11.0764C35.9283 13.8463 37.9757 17.0968 39.4648 20.7188C40.1518 22.3901 40.67 24.1233 41.2729 25.8256C41.9469 27.7289 42.7947 29.5598 43.6484 31.3851C44.4885 33.1813 45.1401 35.0276 45.3315 37.0054C45.498 38.7267 45.2645 40.3909 44.2066 41.8238C43.0296 43.4179 41.473 44.4647 39.4967 44.8279C39.2762 44.8684 38.9769 44.9613 38.8408 44.7584C38.6795 44.518 38.9746 44.3533 39.1065 44.1822C39.6519 43.4751 40.3728 42.9257 40.8853 42.1844C42.0576 40.4883 42.9273 38.6679 43.0929 36.5897C43.2593 34.5008 42.9027 32.4923 41.8861 30.6384C41.3973 29.7469 40.9129 28.8584 40.5858 27.8925C40.5473 27.7791 40.4804 27.6753 40.3934 27.576C40.3598 27.7646 40.4499 27.9247 40.5204 28.0905C40.9989 29.2154 41.6295 30.2708 42.0942 31.3986C42.9472 33.4688 43.1914 35.6214 42.7287 37.8255C42.1511 40.5763 40.6289 42.7436 38.4506 44.4585C37.6455 45.0923 36.6823 45.4464 35.6359 45.5049C35.5628 45.509 35.4888 45.5045 35.4158 45.4976C35.3177 45.4884 35.2094 45.4781 35.1753 45.3668C35.1404 45.2525 35.2274 45.1867 35.309 45.1302C35.3793 45.0815 35.4515 45.0333 35.5286 44.9972C36.989 44.3139 37.9644 43.1517 38.7526 41.7899C39.8806 39.841 40.4224 37.7581 40.2364 35.5065C40.1556 34.527 39.9392 33.5752 39.5094 32.6819C39.432 32.5211 39.3587 32.3551 39.1757 32.2553C39.1234 32.4117 39.1777 32.5273 39.2381 32.626C40.1558 34.1259 40.2015 35.7496 39.9034 37.4125C39.6278 38.9498 39.1422 40.4195 38.3571 41.7785C37.7568 42.8176 36.9869 43.7195 36.0086 44.4165C34.7445 45.3173 33.3953 45.2369 32.0305 44.6536C31.8861 44.5919 31.7156 44.5129 31.7382 44.3205C31.7642 44.098 31.9787 44.1501 32.1213 44.1218C32.8497 43.977 33.3258 43.7572 33.8431 43.2863C33.4047 43.5029 32.9746 43.7349 32.4889 43.8377C31.5158 44.0438 30.7167 43.7226 30.2867 42.8164C29.5602 41.2854 29.3244 39.6759 29.7041 38.001C29.7951 37.5995 29.9007 37.2043 30.1206 36.8572C27.9903 37.7596 25.9067 37.6266 23.8512 36.7326C23.7899 36.7845 23.7854 36.8341 23.808 36.8799C24.5817 38.4475 24.5359 40.0599 24.0735 41.6949C23.9705 42.0593 23.8641 42.4217 23.6857 42.7601C23.1455 43.7847 22.1839 44.1483 21.0836 43.7396C19.8842 43.2942 19.0306 42.4417 18.3261 41.4125C18.2574 41.3121 18.1851 41.2141 18.0884 41.0747C17.604 40.0986 17.2283 39.1361 17.1202 38.0892C16.9515 36.4555 16.8666 34.8278 17.4957 33.2555C17.5273 33.1764 17.5629 33.0962 17.4716 32.9999C17.313 33.0338 17.2551 33.1745 17.2088 33.3051C16.9922 33.9151 16.8031 34.5367 16.7726 35.1858C16.7174 36.3597 16.8026 37.5261 17.0776 38.6718C17.2829 39.5276 17.5487 40.362 18.0701 41.0901ZM35.9661 40.9093C36.0359 40.7952 36.1149 40.6856 36.1741 40.5663C36.8151 39.2745 37.0679 37.8901 37.1551 36.4655C37.217 35.4561 37.1343 34.465 36.7979 33.5051C36.7316 33.3157 36.708 33.0785 36.4493 33.0249C36.373 33.1288 36.4102 33.2092 36.4415 33.2883C37.0897 34.925 36.9825 36.6124 36.7836 38.307C36.6738 39.2427 36.3147 40.0959 35.8937 40.9745C35.5116 41.5981 35.0814 42.1855 34.5664 42.7091C35.149 42.2166 35.6387 41.6539 35.9661 40.9093ZM18.9962 24.4434C18.4719 25.0611 18.2733 25.807 18.252 26.5842C18.1909 28.8103 18.5994 30.9111 19.8417 32.8287C21.5186 35.417 23.8447 36.811 26.9378 36.8833C29.7613 36.9493 32.0382 35.8233 33.8166 33.6597C35.0243 32.1903 35.7647 30.479 36.3355 28.6887C36.6019 27.8528 36.7508 26.9682 36.4668 26.129C36.0376 24.8608 35.5555 23.6146 34.609 22.5898C33.3593 21.2366 32.5648 19.6228 32.1244 17.831C31.8808 16.8397 31.5322 15.8877 30.7917 15.1366C30.6506 14.9935 30.5274 14.8152 30.2852 14.7943C30.0889 15.14 30.1986 15.5235 30.1121 15.8718C29.8085 17.0938 29.4639 18.3041 28.8591 19.4187C27.9512 21.0918 26.508 22.0917 24.7211 22.6462C24.5457 22.7006 24.3635 22.7472 24.1875 22.6452C23.9921 22.532 24.1508 22.3361 24.1133 22.1982C23.802 22.1473 23.5666 22.2432 23.336 22.4097C22.7208 22.8538 22.0831 23.2646 21.4025 23.6042C21.2933 23.6587 21.1806 23.7075 21.0662 23.7499C20.9478 23.7939 20.8161 23.8224 20.7355 23.6944C20.6454 23.5513 20.7315 23.4311 20.8396 23.3443C20.9917 23.2222 21.158 23.1177 21.3178 23.005C21.421 22.9323 21.5466 22.8795 21.5943 22.7307C21.2708 22.689 21.1059 22.9292 20.8946 23.0563C20.236 23.4526 19.5551 23.8221 18.9962 24.4434ZM24.5446 21.5877C24.672 21.7307 24.7731 21.9143 25.0227 21.7736C26.0148 21.2142 26.9148 20.5615 27.493 19.5408C28.2038 18.2861 28.6973 16.9526 29.0021 15.5473C29.0488 15.3321 29.1593 15.1253 29.1141 14.8914C28.9876 15.1438 28.892 15.4052 28.7859 15.6622C28.1579 17.1848 27.1243 18.4449 26.1482 19.7446C25.6619 20.392 25.0649 20.9347 24.5446 21.5877ZM23.5885 20.6631C23.3925 20.927 23.0864 21.1093 22.9528 21.4423C23.24 21.5629 23.3553 21.3755 23.4865 21.2427C25.1451 19.5642 26.5667 17.7085 27.6896 15.63C27.8823 15.2733 28.0624 14.9134 28.042 14.4916C28.0368 14.3841 28.0559 14.2508 27.919 14.2163C27.779 14.181 27.7309 14.3124 27.6851 14.4052C27.4311 14.9204 27.1701 15.431 26.8316 15.8981C26.538 16.3033 26.2254 16.6935 25.9466 17.1111C25.1671 18.2787 24.5073 19.5254 23.5885 20.6631Z" fill="#FF0000"/>
<path d="M29.3211 30.2997C29.5551 30.2809 29.749 30.2832 29.8608 30.4927C29.9677 30.6931 29.8639 30.8514 29.7709 31.026C28.6889 33.0592 25.856 32.866 24.6143 31.0888C24.4838 30.9021 24.3966 30.7136 24.5299 30.4917C24.6598 30.2756 24.8632 30.2422 25.0985 30.2459C26.4955 30.2677 27.8927 30.2827 29.3211 30.2997ZM28.7837 31.432C28.988 31.2655 29.1924 31.0989 29.3967 30.9324C29.3671 30.8915 29.3375 30.8506 29.3079 30.8098C27.9249 30.8098 26.542 30.8098 25.1403 30.8098C25.6904 32.0105 27.6779 32.3517 28.7837 31.432Z" fill="#FF0000"/>
<path d="M21.0506 25.0167C22.2196 24.6675 23.3151 24.7167 24.3385 25.3807C24.6307 25.5703 24.8508 25.8236 25.0194 26.1212C25.0773 26.2234 25.1581 26.3414 25.0511 26.4514C24.9455 26.56 24.8222 26.4957 24.7149 26.4384C24.1639 26.1448 23.5851 25.9476 22.9628 25.8409C22.1819 25.707 21.4667 25.8107 20.7811 26.2065C20.4046 26.4239 20.0032 26.6077 19.5408 26.444C19.4021 26.3949 19.2284 26.3642 19.234 26.1879C19.2401 25.9978 19.423 26.0421 19.5477 26.0302C19.6902 26.0166 19.8102 25.964 19.8909 25.8494C20.1738 25.4476 20.5801 25.213 21.0506 25.0167Z" fill="#FF0000"/>
<path d="M32.0461 24.8893C33.0045 24.7175 33.8983 24.7734 34.7206 25.3133C34.8972 25.4293 35.0696 25.5537 35.1928 25.7295C35.3503 25.9543 35.5148 26.1438 35.8167 26.1082C35.891 26.0994 35.9637 26.1404 35.9838 26.2267C36.0074 26.3285 35.9508 26.4019 35.8738 26.4465C35.6317 26.5867 35.3529 26.6741 35.1021 26.5736C34.8576 26.4756 34.599 26.4125 34.3665 26.2599C33.3447 25.5887 32.2864 25.8096 31.2354 26.1771C30.9715 26.2694 30.7261 26.4192 30.472 26.5423C30.371 26.5913 30.2621 26.6468 30.169 26.5439C30.0765 26.4416 30.1328 26.3278 30.1851 26.2268C30.5803 25.4627 31.2463 25.1013 32.0461 24.8893Z" fill="#FF0000"/>
<path d="M30.5464 21.8976C30.6206 21.6494 30.8102 21.6132 30.9811 21.5755C31.974 21.3565 32.8832 21.5887 33.7158 22.1946C33.867 22.3047 34.0356 22.4447 33.9267 22.6642C33.8274 22.8646 33.6464 22.7428 33.5086 22.6909C32.6887 22.3821 31.8303 22.2875 30.9794 22.1486C30.8183 22.1223 30.6387 22.1207 30.5464 21.8976Z" fill="#FF0000"/>
<path d="M27.98 27.5703C28.0865 27.6397 28.1771 27.6875 28.2441 27.7555C28.3186 27.8311 28.325 27.9332 28.2624 28.0195C28.1982 28.1081 28.0963 28.1276 27.9911 28.0884C27.6828 27.9732 27.3814 27.8332 27.0657 28.0861C26.9923 28.1449 26.8952 28.0917 26.8451 28.0078C26.7793 27.8974 26.8153 27.7942 26.898 27.7141C27.2052 27.4163 27.5694 27.4217 27.98 27.5703Z" fill="#FF0000"/>
<path d="M28.0393 28.6448C28.2298 28.7741 28.2549 28.9128 28.0836 29.0363C27.9759 29.114 27.8561 29.0541 27.8064 28.948C27.7145 28.7517 27.8082 28.6501 28.0393 28.6448Z" fill="#FF0000"/>
<path d="M27.3947 28.6851C27.5022 28.8907 27.45 29.0197 27.2983 29.0663C27.2032 29.0956 27.1335 28.9998 27.1315 28.8801C27.1278 28.6663 27.2159 28.59 27.3947 28.6851Z" fill="#FF0000"/>
</g>
<defs>
<clipPath id="clip0_783_96">
<rect width="54" height="54" fill="white"/>
</clipPath>
</defs>
</svg>
