<svg width="506" height="506" viewBox="0 0 506 506" fill="none" xmlns="http://www.w3.org/2000/svg">
<g clip-path="url(#clip0_723_44)">
<circle cx="253" cy="253" r="253" fill="#FFE2E2"/>
<path d="M184.707 315.091C188.154 322.633 193.918 328.116 200.509 332.865C204.743 335.915 209.203 338.421 214.554 338.873C215.49 338.952 216.616 338.997 216.861 340.173C217.156 341.593 216.042 342.28 215.009 342.737C205.177 347.089 195.28 348.268 185.626 342.437C176.471 336.908 169.852 328.853 164.763 319.619C156.507 304.642 151.992 288.573 151.9 271.396C151.861 264.196 153.696 257.415 157.14 251.074C157.946 249.59 159.024 248.185 158.922 246.084C157.444 246.476 157.091 247.701 156.57 248.711C152.922 255.791 151.214 263.449 150.544 271.276C148.518 294.959 156.635 315.397 171.184 333.612C174.429 337.676 178.66 340.712 183.111 343.385C184.83 344.418 186.624 345.327 188.365 346.325C189.181 346.793 190.264 347.232 190.051 348.385C189.79 349.795 188.456 349.576 187.474 349.567C178.3 349.491 170.031 346.255 163.228 340.505C143.048 323.449 130.166 302.357 129.423 275.162C128.986 259.157 132.694 244.108 140.369 230.044C141.372 228.207 142.322 226.34 143.047 224.358C139.193 230.704 135.241 236.98 132.826 244.1C127.707 259.186 126.444 274.495 129.873 290.111C132.455 301.869 137.869 312.343 144.55 322.235C147.936 327.248 152.005 331.669 156.248 335.956C157.991 337.717 159.629 339.609 161.112 341.594C162.467 343.408 161.939 344.341 159.652 344.503C158.703 344.57 157.723 344.589 156.791 344.431C135.673 340.853 117.556 324.558 112.499 306.071C109.667 295.715 110.109 285.301 111.949 274.832C114.167 262.204 118.765 250.443 124.072 238.837C131.936 221.642 139.577 204.362 145.65 186.39C150.626 171.665 155.007 156.653 162.179 142.757C170.159 127.296 178.224 111.852 189.606 98.5041C197.231 89.5616 204.756 80.4945 214.316 73.4528C239.881 54.6237 278.346 56.7601 302.203 80.3265C324.136 101.992 340.121 127.417 351.747 155.749C357.111 168.821 361.157 182.378 365.864 195.693C371.126 210.58 377.745 224.901 384.411 239.179C390.97 253.229 396.058 267.67 397.552 283.141C398.852 296.605 397.029 309.621 388.769 320.829C379.579 333.298 367.426 341.486 351.996 344.327C350.275 344.644 347.938 345.37 346.875 343.784C345.616 341.904 347.92 340.615 348.95 339.277C353.208 333.746 358.836 329.449 362.837 323.65C371.991 310.384 378.781 296.144 380.074 279.889C381.373 263.549 378.589 247.839 370.652 233.338C366.835 226.366 363.054 219.416 360.499 211.86C360.199 210.973 359.677 210.161 358.997 209.384C358.735 210.86 359.438 212.112 359.989 213.409C363.725 222.208 368.649 230.463 372.276 239.284C378.936 255.477 380.843 272.315 377.23 289.555C372.721 311.072 360.836 328.024 343.829 341.438C337.543 346.395 330.023 349.165 321.853 349.623C321.282 349.655 320.704 349.619 320.134 349.566C319.369 349.493 318.523 349.413 318.257 348.542C317.985 347.648 318.664 347.134 319.3 346.692C319.849 346.311 320.413 345.934 321.015 345.651C332.417 340.306 340.033 331.216 346.187 320.564C354.994 305.321 359.224 289.028 357.772 271.416C357.14 263.755 355.451 256.31 352.095 249.322C351.491 248.065 350.919 246.766 349.49 245.985C349.082 247.209 349.505 248.113 349.977 248.885C357.142 260.617 357.499 273.318 355.172 286.325C353.02 298.35 349.228 309.845 343.099 320.475C338.412 328.603 332.4 335.657 324.763 341.109C314.893 348.155 304.359 347.527 293.703 342.964C292.576 342.481 291.245 341.863 291.421 340.359C291.624 338.618 293.299 339.026 294.412 338.804C300.1 337.672 303.817 335.953 307.855 332.269C304.432 333.964 301.074 335.778 297.282 336.582C289.685 338.194 283.446 335.682 280.088 328.593C274.416 316.618 272.575 304.029 275.54 290.928C276.25 287.787 277.075 284.696 278.791 281.982C262.16 289.04 245.892 288 229.843 281.006C229.365 281.413 229.329 281.801 229.506 282.159C235.547 294.42 235.189 307.032 231.579 319.822C230.774 322.672 229.944 325.506 228.551 328.153C224.333 336.167 216.825 339.011 208.235 335.815C198.87 332.331 192.206 325.663 186.706 317.612C186.169 316.827 185.605 316.061 184.85 314.97C181.067 307.335 178.134 299.807 177.29 291.618C175.973 278.839 175.311 266.107 180.222 253.809C180.469 253.191 180.747 252.563 180.034 251.81C178.795 252.075 178.344 253.176 177.982 254.197C176.291 258.969 174.815 263.83 174.577 268.908C174.146 278.09 174.811 287.213 176.958 296.175C178.561 302.869 180.636 309.396 184.707 315.091ZM324.431 313.677C324.976 312.784 325.592 311.927 326.055 310.993C331.059 300.889 333.033 290.06 333.714 278.917C334.197 271.022 333.552 263.269 330.926 255.762C330.407 254.28 330.224 252.425 328.204 252.005C327.608 252.818 327.898 253.447 328.143 254.065C333.204 266.868 332.366 280.066 330.813 293.322C329.956 300.64 327.152 307.314 323.866 314.187C320.883 319.064 317.524 323.659 313.503 327.754C318.052 323.902 321.875 319.501 324.431 313.677ZM191.937 184.882C187.843 189.713 186.293 195.547 186.127 201.627C185.65 219.039 188.839 235.472 198.539 250.471C211.631 270.716 229.793 281.62 253.942 282.185C275.986 282.701 293.763 273.894 307.648 256.971C317.078 245.477 322.858 232.091 327.315 218.088C329.395 211.55 330.557 204.631 328.34 198.066C324.989 188.146 321.225 178.399 313.836 170.383C304.078 159.799 297.875 147.176 294.437 133.16C292.535 125.406 289.813 117.96 284.031 112.085C282.93 110.965 281.968 109.571 280.077 109.408C278.544 112.112 279.401 115.111 278.725 117.836C276.355 127.394 273.665 136.861 268.942 145.579C261.854 158.666 250.586 166.487 236.635 170.824C235.266 171.25 233.843 171.614 232.469 170.817C230.943 169.931 232.182 168.398 231.889 167.32C229.459 166.922 227.621 167.672 225.821 168.974C221.017 172.448 216.039 175.661 210.724 178.318C209.872 178.744 208.992 179.125 208.099 179.457C207.175 179.801 206.146 180.024 205.517 179.023C204.814 177.904 205.486 176.963 206.33 176.285C207.517 175.33 208.816 174.512 210.063 173.631C210.869 173.062 211.85 172.649 212.222 171.485C209.697 171.159 208.409 173.038 206.76 174.032C201.617 177.132 196.301 180.022 191.937 184.882ZM235.257 162.544C236.251 163.663 237.041 165.099 238.989 163.999C246.736 159.623 253.762 154.518 258.277 146.534C263.826 136.72 267.679 126.289 270.059 115.297C270.423 113.614 271.286 111.996 270.934 110.167C269.946 112.141 269.199 114.186 268.371 116.196C263.468 128.105 255.398 137.962 247.777 148.128C243.98 153.192 239.319 157.437 235.257 162.544ZM227.792 155.313C226.262 157.377 223.872 158.803 222.828 161.408C225.071 162.351 225.971 160.885 226.996 159.846C239.945 146.717 251.045 132.202 259.811 115.944C261.316 113.154 262.722 110.339 262.563 107.04C262.523 106.199 262.672 105.156 261.603 104.886C260.51 104.61 260.134 105.638 259.777 106.364C257.793 110.394 255.755 114.388 253.113 118.041C250.82 121.211 248.38 124.263 246.203 127.53C240.117 136.662 234.965 146.413 227.792 155.313Z" fill="#FF0000"/>
<path d="M272.079 230.003C273.9 229.853 275.409 229.871 276.278 231.545C277.109 233.147 276.302 234.411 275.579 235.807C267.161 252.054 245.122 250.51 235.462 236.309C234.447 234.817 233.769 233.31 234.806 231.537C235.816 229.81 237.399 229.543 239.229 229.573C250.098 229.747 260.967 229.867 272.079 230.003ZM267.898 239.051C269.488 237.72 271.078 236.389 272.668 235.059C272.437 234.732 272.207 234.405 271.976 234.079C261.218 234.079 250.459 234.079 239.555 234.079C243.834 243.674 259.296 246.4 267.898 239.051Z" fill="#FF0000"/>
<path d="M207.588 189.185C216.743 186.405 225.323 186.797 233.338 192.084C235.626 193.593 237.35 195.61 238.671 197.98C239.124 198.794 239.757 199.733 238.919 200.609C238.092 201.474 237.127 200.961 236.286 200.506C231.97 198.168 227.437 196.597 222.564 195.748C216.448 194.682 210.846 195.507 205.477 198.659C202.528 200.39 199.385 201.853 195.763 200.55C194.677 200.159 193.316 199.915 193.36 198.511C193.408 196.998 194.84 197.35 195.817 197.255C196.933 197.147 197.873 196.728 198.505 195.815C200.72 192.616 203.903 190.748 207.588 189.185Z" fill="#FF0000"/>
<path d="M293.827 188.166C301.337 186.876 308.34 187.295 314.783 191.352C316.167 192.223 317.518 193.158 318.483 194.479C319.717 196.169 321.007 197.592 323.372 197.325C323.954 197.259 324.524 197.567 324.681 198.216C324.866 198.98 324.423 199.532 323.82 199.867C321.922 200.921 319.738 201.577 317.772 200.822C315.857 200.085 313.83 199.612 312.009 198.465C304.003 193.421 295.709 195.081 287.474 197.843C285.406 198.536 283.483 199.662 281.493 200.587C280.701 200.955 279.848 201.372 279.118 200.599C278.394 199.83 278.835 198.975 279.244 198.216C282.341 192.475 287.56 189.759 293.827 188.166Z" fill="#FF0000"/>
<path d="M281.683 164.806C282.272 162.972 283.779 162.705 285.138 162.426C293.029 160.808 300.255 162.524 306.871 167C308.073 167.813 309.413 168.847 308.548 170.469C307.758 171.949 306.32 171.049 305.225 170.666C298.708 168.385 291.886 167.686 285.124 166.66C283.843 166.465 282.416 166.454 281.683 164.806Z" fill="#FF0000"/>
<path d="M261.803 209.106C262.604 209.666 263.284 210.051 263.786 210.599C264.346 211.209 264.395 212.033 263.925 212.728C263.442 213.443 262.677 213.6 261.887 213.284C259.572 212.355 257.308 211.225 254.937 213.266C254.386 213.74 253.657 213.311 253.28 212.633C252.786 211.743 253.056 210.911 253.677 210.265C255.984 207.864 258.72 207.907 261.803 209.106Z" fill="#FF0000"/>
<path d="M262.443 217.202C263.896 218.19 264.087 219.249 262.78 220.193C261.959 220.786 261.046 220.329 260.667 219.518C259.966 218.019 260.68 217.242 262.443 217.202Z" fill="#FF0000"/>
<path d="M257.662 217.659C258.635 219.116 258.163 220.03 256.791 220.361C255.93 220.569 255.3 219.889 255.281 219.041C255.248 217.525 256.045 216.985 257.662 217.659Z" fill="#FF0000"/>
<path d="M104.16 365.737C105.918 368.181 107.614 369.402 109.249 369.402C114.101 372.057 116.526 376.064 116.526 381.426C117.212 389.564 112.211 399.329 101.523 410.72C101.154 413.128 100.434 414.332 99.3614 414.332C98.377 414.332 97.8848 413.734 97.8848 412.539H97.5684L99.7305 403.416C100.24 395.963 100.741 386.312 101.233 374.465V370.483C101.233 367.319 102.209 365.737 104.16 365.737ZM101.945 405.947H102.262C106.48 403.434 110.154 397.694 113.283 388.729L114.048 382.507V380.292C113.116 374.245 110.436 371.222 106.006 371.222C104.266 371.222 103.396 372.918 103.396 376.311L101.945 405.947ZM125.148 381.927C129.033 383.069 130.976 385.012 130.976 387.754V388.835C130.976 394.267 128.541 398.028 123.672 400.12H121.193V400.885C121.193 405.244 122.274 408.285 124.437 410.008H125.57C126.941 410.008 128.884 408.065 131.397 404.181L131.714 404.497H132.109C130.369 410.104 127.935 412.908 124.806 412.908C121.958 412.908 119.638 407.925 117.845 397.958C117.458 397.958 117.221 397.352 117.133 396.139C118.117 395.383 118.987 392.228 119.743 386.673C121.606 383.509 123.408 381.927 125.148 381.927ZM120.772 395.427C120.982 396.622 121.36 397.22 121.905 397.22H124.12C127.038 395.849 128.497 393.054 128.497 388.835V388.466C128.128 386.058 127.012 384.854 125.148 384.854C122.23 384.854 120.772 388.378 120.772 395.427ZM146.321 382.032L146.717 382.454V383.166C142.094 386.436 139.782 389.837 139.782 393.37V394.135C139.782 396.719 141.856 400.349 146.005 405.024L146.321 406.501C144.564 411.106 141.162 413.409 136.117 413.409C133.463 413.409 132.136 412.434 132.136 410.482L136.486 410.878H137.963C141.373 410.052 143.078 408.593 143.078 406.501V406.105C143.078 405.508 141.373 402.722 137.963 397.747L136.882 393.687C136.882 389.222 139.8 385.337 145.636 382.032H146.321ZM152.096 378.367C153.027 378.367 153.889 378.851 154.68 379.817C154.68 380.538 153.818 381.382 152.096 382.349C151.445 382.349 150.848 381.76 150.303 380.582C150.777 379.246 151.375 378.508 152.096 378.367ZM152.096 387.859L153.23 389.336C152.263 390.303 151.779 392.966 151.779 397.325C151.885 401.931 152.597 406.413 153.915 410.772V411.511L152.86 412.645H151.779C150.619 412.645 149.749 406.923 149.169 395.479C149.169 390.399 149.907 387.859 151.384 387.859H152.096ZM170.869 383.008H171.555L172.689 384.089V385.908C170.966 389.16 170.105 393.177 170.105 397.958L170.553 419.447C170.553 430.398 168.839 435.874 165.411 435.874C165.411 436.349 164.796 436.586 163.565 436.586C160.647 435.971 159.189 434.635 159.189 432.578V432.209H159.9C161.518 433.422 162.871 434.028 163.961 434.028C166.615 434.028 167.942 430.021 167.942 422.005V404.181L167.626 401.57H166.861C165.033 408.373 162.37 411.774 158.872 411.774H158.45C157.624 411.669 156.798 409.858 155.972 406.343C155.972 399.03 158.257 392.579 162.827 386.989L168.338 384.854C168.338 383.623 169.182 383.008 170.869 383.008ZM158.872 401.966V407.793C158.872 408.514 159.355 408.874 160.322 408.874C162.309 408.874 164.743 403.038 167.626 391.366V388.123C163.478 388.123 160.665 391.762 159.189 399.039L158.872 401.966ZM183.394 380.371H183.71C186.593 380.371 188.298 385.82 188.825 396.719V403.311L189.221 407.292L188.825 408.769L189.221 412.064L188.087 412.75C186.892 412.434 186.294 411.59 186.294 410.219V398.169C186.294 389.679 185.433 385.073 183.71 384.353H183.394C180.792 385.688 179.201 391.032 178.621 400.384V410.588L179.017 412.064C178.507 413.506 178.015 414.227 177.54 414.227C176.327 414.227 175.589 413.734 175.325 412.75L175.721 402.941L174.64 386.515V384.353L176.09 382.902C177.057 383.254 177.54 383.614 177.54 383.983L177.171 389.441L177.54 389.811H178.252C178.252 386.242 179.966 383.096 183.394 380.371ZM198.977 381.927C202.861 383.069 204.804 385.012 204.804 387.754V388.835C204.804 394.267 202.369 398.028 197.5 400.12H195.022V400.885C195.022 405.244 196.103 408.285 198.265 410.008H199.398C200.77 410.008 202.712 408.065 205.226 404.181L205.542 404.497H205.938C204.197 410.104 201.763 412.908 198.634 412.908C195.786 412.908 193.466 407.925 191.673 397.958C191.286 397.958 191.049 397.352 190.961 396.139C191.945 395.383 192.815 392.228 193.571 386.673C195.435 383.509 197.236 381.927 198.977 381.927ZM194.6 395.427C194.811 396.622 195.189 397.22 195.733 397.22H197.948C200.866 395.849 202.325 393.054 202.325 388.835V388.466C201.956 386.058 200.84 384.854 198.977 384.854C196.059 384.854 194.6 388.378 194.6 395.427ZM221.125 372.145C222.496 372.145 223.34 372.742 223.656 373.938L222.918 376.521C223.516 401.184 224.069 413.225 224.579 412.645L223.393 413.515C222.391 413.075 221.855 412.855 221.784 412.855L221.441 397.642L221.125 397.272H220.756C219.279 407.485 217.082 412.592 214.164 412.592H213.452C210.534 412.592 209.075 409.674 209.075 403.838C209.075 399.602 211.149 395.462 215.298 391.419C218.708 390.628 220.413 389.301 220.413 387.438V382.349L219.675 373.938C220.132 372.848 220.615 372.25 221.125 372.145ZM212.002 402.388V406C212.002 407.881 212.617 409.111 213.848 409.691H214.164C215.605 409.691 217.311 404.339 219.279 393.634L218.963 393.265H217.513C213.839 395.497 212.002 398.538 212.002 402.388ZM255.429 368.743L257.248 369.877L256.879 373.12L258.329 391.313H258.725C260.834 388.396 262.645 386.937 264.156 386.937H265.29C268.208 389.433 269.667 392.008 269.667 394.662C268.015 402.73 265.105 408.795 260.939 412.855L260.491 413.198C259.524 412.97 259.041 412.372 259.041 411.405H258.329C256.536 411.405 255.569 411.027 255.429 410.271V409.955L256.114 407.028C256.114 390.435 255.288 378.288 253.636 370.589C253.636 369.938 254.233 369.323 255.429 368.743ZM259.463 409.955L259.806 410.271C262.073 408.936 264.139 405.191 266.002 399.039L266.767 396.139C266.767 391.955 265.65 389.863 263.418 389.863C261.115 389.863 259.797 396.561 259.463 409.955ZM284.195 385.434H285.329L286.806 386.884C286.331 387.868 286.094 389.204 286.094 390.892V393.476L285.672 402.941L286.094 403.311V403.68L285.672 407.292C285.672 425.046 284.837 433.923 283.167 433.923H281.717L280.267 432.104C281.708 430.979 282.429 428.667 282.429 425.169C283.149 418.507 283.51 409.146 283.51 397.088H283.167C282.815 397.211 281.11 401.228 278.052 409.138C276.997 410.104 275.898 410.72 274.756 410.983C272.594 410.983 271.513 407.327 271.513 400.015C271.513 394.214 272.594 390.689 274.756 389.441L275.89 389.811V391.261C274.624 392.772 273.991 395.075 273.991 398.169V400.384C273.991 404.743 274.483 406.923 275.468 406.923H275.89C280.46 399.153 282.745 392.729 282.745 387.648L284.195 385.434ZM330.417 367.557C333.036 367.627 334.398 379.721 334.504 403.838L335.638 415.519L333.818 415.835H333.054L331.973 414.754V401.254L331.604 395.796H331.261C325.442 396.517 322.261 397.747 321.716 399.487C320.784 408.329 320.081 412.803 319.606 412.908H318.156L316.68 411.458C317.875 402.212 319.826 392.008 322.533 380.846C324.397 371.635 327.024 367.205 330.417 367.557ZM322.902 393.265L324.695 394.662C329.547 393.59 331.973 392.764 331.973 392.184V385.592L332.342 380.846L331.445 377.181C330.76 374.263 330.039 372.804 329.283 372.804C327.736 372.804 325.609 379.624 322.902 393.265ZM348.689 383.482H349.771L351.247 384.959V385.697L350.482 386.409L348.689 386.04C344.805 391.173 342.862 396.033 342.862 400.621V406.448L343.205 410.482C343.205 411.467 342.607 411.959 341.412 411.959V412.275C340.445 411.906 339.962 411.546 339.962 411.194V407.187C339.048 395.532 338.31 389.705 337.747 389.705C338.239 388.229 338.723 387.49 339.197 387.49H339.566C340.551 387.877 341.043 388.738 341.043 390.074V394.082H341.412C343.82 388.826 346.246 385.293 348.689 383.482ZM365.934 385.434L366.646 386.198L365.934 389.099V390.232L366.25 393.159C365.283 406.255 363.235 412.803 360.106 412.803C356.907 412.803 354.587 406.598 353.146 394.188V392.025C353.146 390.18 353.629 389.099 354.596 388.782H355.36L356.441 389.494L356.046 392.025V395.638C356.046 400.472 357.145 405.227 359.342 409.902H360.106C361.794 409.217 362.875 404.611 363.35 396.086V392.395C363.35 390.672 363.112 389.327 362.638 388.36C362.638 386.813 363.736 385.838 365.934 385.434ZM380.093 382.032L380.488 382.454V383.166C375.865 386.436 373.554 389.837 373.554 393.37V394.135C373.554 396.719 375.628 400.349 379.776 405.024L380.093 406.501C378.335 411.106 374.934 413.409 369.889 413.409C367.234 413.409 365.907 412.434 365.907 410.482L370.258 410.878H371.734C375.145 410.052 376.85 408.593 376.85 406.501V406.105C376.85 405.508 375.145 402.722 371.734 397.747L370.653 393.687C370.653 389.222 373.571 385.337 379.407 382.032H380.093ZM383.969 368.954H385.05L386.131 370.035V370.431L385.419 373.331V375.889L386.131 394.135L386.5 395.216H387.212C388.829 389.134 391.264 386.093 394.516 386.093C396.854 386.093 398.198 392.781 398.55 406.158L399.262 410.166L398.181 412.012C396.915 412.012 396.177 410.781 395.966 408.32V405.789C395.966 394.855 394.99 389.389 393.039 389.389C390.051 390.531 388.231 396.358 387.581 406.87C387.739 410.298 387.994 412.012 388.346 412.012C387.836 413.084 387.353 413.673 386.896 413.778H385.762C384.566 413.093 383.969 412.126 383.969 410.878L384.681 409.085C383.661 384.036 382.686 371.512 381.754 371.512C382.158 370.422 382.897 369.569 383.969 368.954ZM404.852 378.367C405.783 378.367 406.645 378.851 407.436 379.817C407.436 380.538 406.574 381.382 404.852 382.349C404.201 382.349 403.604 381.76 403.059 380.582C403.533 379.246 404.131 378.508 404.852 378.367ZM404.852 387.859L405.985 389.336C405.019 390.303 404.535 392.966 404.535 397.325C404.641 401.931 405.353 406.413 406.671 410.772V411.511L405.616 412.645H404.535C403.375 412.645 402.505 406.923 401.925 395.479C401.925 390.399 402.663 387.859 404.14 387.859H404.852Z" fill="#FF0000"/>
</g>
<defs>
<clipPath id="clip0_723_44">
<rect width="506" height="506" fill="white"/>
</clipPath>
</defs>
</svg>
